<?xml version="1.0" standalone="no"?>
<!DOCTYPE svg PUBLIC "-//W3C//DTD SVG 20010904//EN"
 "http://www.w3.org/TR/2001/REC-SVG-20010904/DTD/svg10.dtd">
<svg version="1.0" xmlns="http://www.w3.org/2000/svg"
 width="500.000000pt" height="500.000000pt" viewBox="0 0 500.000000 500.000000"
 preserveAspectRatio="xMidYMid meet">

<g transform="translate(0.000000,500.000000) scale(0.100000,-0.100000)"
fill="#000000" stroke="none">
<path d="M2220 4594 c-230 -35 -475 -110 -675 -209 -622 -306 -1037 -843
-1180 -1527 -36 -170 -45 -472 -21 -665 42 -327 153 -626 335 -900 78 -120 93
-135 106 -112 8 12 38 7 155 -28 177 -52 386 -171 511 -292 76 -73 83 -94 45
-138 l-24 -28 -100 97 c-56 53 -123 109 -149 124 -26 15 -62 38 -78 50 -32 24
-263 137 -303 149 -12 3 -22 2 -22 -3 0 -5 57 -38 127 -72 196 -94 445 -272
427 -302 -4 -6 -3 -8 3 -5 5 4 20 -5 32 -19 25 -29 21 -44 -6 -23 -17 13 -17
12 0 -8 14 -16 15 -23 6 -29 -8 -5 -10 -3 -4 6 5 9 4 11 -4 6 -21 -13 7 -35
108 -85 163 -81 412 -163 591 -195 420 -75 814 -32 1244 135 118 46 198 88
204 108 3 8 0 11 -7 7 -21 -13 -17 40 5 61 8 8 14 19 14 25 0 5 7 8 15 4 8 -3
14 0 12 7 -1 7 4 11 10 10 7 -2 12 3 10 10 -1 7 8 12 22 12 14 0 27 8 30 18 4
10 10 17 13 15 4 -2 14 6 23 17 l15 20 -6 -20 c-5 -14 -4 -17 4 -10 5 6 12 19
14 30 4 25 154 109 285 162 51 20 100 44 109 54 16 17 15 18 -12 10 -175 -52
-370 -158 -531 -288 l-102 -83 -20 29 c-37 52 -27 76 59 143 76 60 210 135
325 182 138 56 311 102 329 87 38 -31 249 295 339 524 155 391 196 823 116
1215 -108 528 -399 988 -829 1308 -334 249 -769 410 -1160 429 l-115 6 3 -47
c2 -27 0 -46 -6 -46 -6 0 -17 -3 -26 -6 -13 -5 -16 2 -16 45 l0 51 -77 -1
c-43 -1 -121 -7 -173 -15z m349 -130 c34 -24 51 -74 51 -148 0 -49 -4 -65 -16
-70 -9 -3 -67 -6 -130 -6 l-114 0 0 65 c0 119 43 175 134 175 31 0 61 -6 75
-16z m-373 -9 c14 -13 12 -15 -16 -15 -26 0 -29 2 -18 15 16 18 16 18 34 0z
m722 -51 c26 -18 30 -65 7 -84 -8 -7 -26 -12 -40 -12 -35 0 -55 19 -55 53 0
27 30 59 55 59 6 0 21 -7 33 -16z m-900 -104 c15 -30 13 -343 -3 -359 -16 -16
-231 -17 -250 -1 -12 10 -15 42 -15 189 0 127 3 180 12 189 9 9 47 12 128 10
111 -3 115 -4 128 -28z m1280 -60 c53 -32 74 -75 69 -143 -3 -47 -9 -63 -33
-88 -60 -63 -126 -76 -185 -36 -135 91 -87 287 71 287 27 0 58 -8 78 -20z
m-1105 -13 c3 -8 1 -20 -4 -28 -11 -19 -34 3 -26 25 8 20 23 21 30 3z m413
-17 c54 0 65 -3 75 -21 8 -16 8 -24 -1 -33 -9 -8 -14 -8 -17 2 -3 9 -46 12
-165 12 -146 0 -159 -1 -156 -17 3 -16 21 -19 159 -23 110 -4 161 -9 173 -19
8 -7 13 -17 10 -22 -3 -5 2 -6 10 -3 16 6 40 -29 28 -41 -4 -3 -1 -5 7 -3 18
4 29 -31 30 -94 l1 -48 -270 0 -270 0 0 43 c1 56 29 115 75 156 33 29 36 35
22 43 -22 12 -22 54 1 68 11 7 54 9 121 5 57 -3 133 -5 167 -5z m-1042 -32
c46 -66 -26 -136 -84 -83 -22 20 -27 74 -8 93 21 21 75 15 92 -10z m2010 -14
c20 -19 21 -58 2 -73 -25 -21 -69 -9 -80 21 -17 50 42 89 78 52z m-611 -72
c-7 -2 -14 -11 -14 -20 -1 -15 -2 -15 -6 1 -2 9 -11 17 -19 17 -11 0 -10 4 4
18 15 15 19 15 32 2 12 -11 13 -16 3 -18z m-1667 -40 c38 -25 40 -103 4 -122
-35 -19 -77 -12 -99 16 -12 15 -21 34 -21 44 0 33 39 70 73 70 18 0 37 -4 43
-8z m2251 -54 c16 -15 23 -33 23 -60 0 -21 -4 -38 -10 -38 -5 0 -10 12 -10 28
0 43 -26 72 -63 72 -45 0 -59 -12 -66 -56 -7 -45 -27 -44 -24 1 2 44 56 89 96
81 17 -4 41 -16 54 -28z m-2076 -39 c112 -50 161 -80 129 -78 -26 1 -243 104
-248 117 -2 6 -2 12 0 12 3 0 56 -23 119 -51z m2413 20 c14 -11 31 -29 36 -40
9 -16 5 -15 -26 6 -59 40 -115 38 -161 -8 -62 -59 -36 -155 47 -177 23 -6 47
-7 62 -1 34 13 69 55 79 93 7 30 8 28 5 -14 -1 -26 -6 -51 -11 -55 -4 -5 -5
-2 0 6 5 9 4 12 -3 7 -6 -4 -9 -13 -6 -20 8 -20 -22 -29 -100 -32 -59 -2 -72
-6 -98 -31 -17 -15 -37 -42 -44 -60 -10 -24 -18 -31 -31 -26 -11 4 -14 3 -9
-5 14 -23 -5 -12 -49 29 l-45 42 64 67 c42 45 66 80 71 102 12 61 28 89 64
114 46 31 117 33 155 3z m-1623 -109 c65 0 69 -1 69 -22 0 -31 39 -97 72 -121
36 -27 114 -33 161 -14 41 18 97 95 97 134 0 22 4 23 69 23 l70 0 3 46 3 45
35 -44 c19 -25 67 -82 105 -128 39 -46 80 -96 90 -110 11 -15 55 -68 98 -118
l78 -91 -712 0 -711 0 28 38 c15 20 56 71 91 112 35 41 87 105 116 141 28 36
77 95 107 132 l55 66 3 -45 3 -44 70 0z m-717 3 l169 -69 38 -75 c21 -40 39
-77 39 -80 0 -11 -86 9 -149 35 -34 13 -61 22 -61 18 0 -4 -5 1 -10 10 -6 9
-50 45 -98 79 -126 90 -154 117 -141 141 13 24 0 27 213 -59z m-399 1 c28 -25
80 -73 118 -106 37 -34 67 -67 67 -74 0 -14 -60 -64 -76 -64 -5 0 -61 52 -124
116 l-114 117 32 28 c18 16 36 29 40 29 4 0 30 -21 57 -46z m2705 17 c22 -41
-1 -81 -45 -81 -23 0 -55 33 -55 57 0 40 81 59 100 24z m-1219 -51 c-9 -65
-52 -108 -119 -117 -72 -10 -138 40 -157 120 l-7 28 143 -3 144 -3 -4 -25z
m465 -1 c8 -14 -11 -33 -25 -25 -11 7 -4 36 9 36 5 0 12 -5 16 -11z m-1156
-30 c0 -5 -4 -9 -10 -9 -5 0 -10 7 -10 16 0 8 5 12 10 9 6 -3 10 -10 10 -16z
m1395 -49 c10 -20 26 -33 45 -37 35 -7 38 -16 9 -37 -18 -12 -20 -21 -14 -52
l7 -37 -26 16 c-32 21 -50 21 -81 1 l-24 -16 6 37 c5 29 1 40 -17 58 l-24 21
32 8 c20 6 37 19 47 38 9 17 18 30 20 30 2 0 12 -14 20 -30z m748 -85 c15 -31
21 -35 57 -35 47 0 50 -11 15 -52 -21 -25 -24 -36 -18 -73 3 -25 3 -45 1 -45
-3 0 -22 7 -42 15 -32 14 -39 14 -66 0 -47 -24 -53 -20 -46 31 5 40 3 50 -19
76 -34 40 -32 48 15 48 36 0 42 4 57 35 9 19 20 35 23 35 3 0 14 -16 23 -35z
m-3135 7 c77 -38 77 -39 74 -88 -1 -26 -3 -48 -5 -49 -1 -1 -44 -5 -94 -8
l-93 -6 0 59 0 59 40 11 c21 6 42 15 45 20 8 12 11 12 33 2z m415 -24 c4 -14
-51 -68 -70 -68 -20 0 -15 12 19 47 35 36 44 40 51 21z m2178 -9 c16 -11 36
-34 44 -50 15 -28 15 -30 -10 -39 -36 -14 -47 -13 -73 6 -24 16 -29 53 -12 85
13 24 15 24 51 -2z m-2145 -40 c10 -17 -13 -36 -27 -22 -12 12 -4 33 11 33 5
0 12 -5 16 -11z m44 -54 c13 -14 20 -28 17 -32 -8 -7 -57 35 -57 49 0 15 16 8
40 -17z m2369 -33 c41 26 49 18 21 -22 -20 -28 -20 -33 -8 -48 17 -19 30 -52
22 -52 -3 0 -19 9 -35 21 l-29 20 -29 -20 c-16 -12 -32 -21 -35 -21 -12 0 -5
26 13 50 19 24 19 25 0 48 -32 42 -24 58 14 29 l33 -25 33 20z m-3073 -23 c10
-17 -13 -36 -27 -22 -12 12 -4 33 11 33 5 0 12 -5 16 -11z m510 -79 c21 0 18
-6 -24 -48 l-39 -39 -36 40 c-42 46 -42 47 -23 47 8 0 25 14 37 31 l22 31 24
-31 c14 -17 31 -31 39 -31z m3054 30 c0 -5 -4 -10 -10 -10 -5 0 -10 5 -10 10
0 6 5 10 10 10 6 0 10 -4 10 -10z m-754 -19 c53 -35 55 -48 53 -363 -1 -161
-5 -313 -9 -338 -4 -26 -8 94 -9 275 -1 283 -3 324 -19 355 -9 19 -28 40 -42
47 -19 10 -245 13 -1023 13 -1073 0 -1039 2 -1067 -49 -6 -13 -10 -159 -10
-403 0 -480 -11 -938 -22 -938 -4 0 -8 300 -8 668 0 645 1 668 20 699 12 20
32 36 52 42 20 6 424 9 1048 8 857 -2 1018 -4 1036 -16z m-21 -56 l25 -24 0
-499 c0 -520 -3 -592 -26 -592 -8 0 -14 -5 -14 -12 0 -6 -3 -8 -7 -5 -3 4 -12
2 -20 -5 -7 -6 -16 -8 -20 -5 -3 4 -8 226 -10 494 -2 269 -6 498 -9 510 -2 12
-14 32 -26 43 -22 20 -32 20 -921 20 l-899 0 -28 -28 -28 -29 -4 -494 c-3
-456 -4 -497 -20 -513 -10 -10 -18 -13 -18 -8 0 5 -11 7 -23 5 -23 -5 -24 -1
-30 64 -12 119 -8 1042 4 1064 6 11 20 24 32 29 12 5 470 9 1020 9 l998 1 24
-25z m425 -86 c0 -74 -14 -94 -49 -72 -24 15 -28 133 -5 150 12 9 22 9 35 2
16 -8 19 -22 19 -80z m-3038 52 c15 -28 15 -30 -5 -49 -12 -10 -36 -28 -53
-40 -30 -20 -32 -20 -46 -4 -42 51 -42 48 8 86 57 44 74 45 96 7z m3268 14
c-9 -11 -10 -19 -2 -27 15 -15 35 1 29 23 -3 11 -1 17 4 13 5 -3 9 -37 9 -75
0 -55 -3 -71 -16 -76 -30 -11 -49 11 -52 62 -4 63 4 95 24 95 14 0 14 -3 4
-15z m-3022 -163 l53 -27 -38 -32 c-21 -18 -62 -50 -91 -70 -30 -21 -86 -64
-125 -95 -40 -31 -75 -53 -78 -50 -4 4 -15 70 -24 146 -18 134 -18 140 -1 150
10 6 37 25 59 42 l41 31 76 -34 c41 -19 99 -46 128 -61z m2700 56 c3 -39 30
-68 64 -68 27 0 58 37 58 69 0 33 17 41 98 41 l52 0 0 -40 c0 -31 5 -43 25
-56 42 -27 95 4 95 57 0 29 1 30 43 27 31 -2 42 -7 41 -19 -1 -9 6 -16 15 -15
14 1 16 -11 15 -84 -2 -114 -15 -240 -25 -240 -5 0 -8 -34 -8 -76 0 -42 -2
-79 -6 -82 -12 -12 -481 -14 -524 -2 -66 18 -71 36 -71 270 l0 202 30 29 c23
24 37 30 62 27 30 -3 33 -6 36 -40z m-2104 -5 l-29 -38 -3 -476 c-3 -393 -1
-483 11 -517 l15 -42 -74 0 c-124 0 -114 -49 -114 553 0 477 1 515 18 529 26
23 40 26 126 27 l78 1 -28 -37z m1397 27 c19 -6 46 -22 60 -36 l24 -26 0 -503
0 -503 -25 -27 c-35 -37 -72 -55 -117 -55 l-38 0 -41 88 -41 87 36 3 c63 6 71
21 71 140 0 151 16 142 -251 142 -206 0 -219 -1 -229 -19 -14 -27 -13 -204 2
-236 10 -21 18 -25 58 -25 44 0 46 -1 57 -37 6 -21 20 -62 32 -90 l21 -53
-160 0 -159 0 -15 29 c-10 18 -31 35 -57 45 -38 16 -45 16 -90 1 -26 -9 -65
-30 -86 -46 l-38 -31 -165 4 c-139 2 -169 6 -192 21 -58 40 -58 40 -58 567 0
395 3 486 14 508 13 25 37 43 76 55 30 10 1275 7 1311 -3z m253 -11 l26 -20 0
-519 0 -519 -22 -15 c-15 -11 -46 -16 -95 -16 l-73 0 10 26 c15 38 13 989 -1
1017 -6 12 -21 32 -32 45 l-20 22 90 0 c76 0 94 -3 117 -21z m-2759 -114 c-7
-5 -15 -17 -18 -25 -4 -10 -6 -7 -6 8 -1 13 -8 22 -18 23 -17 1 -17 2 0 6 9 2
17 12 17 20 0 14 3 13 18 -3 14 -15 16 -21 7 -29z m595 -12 c0 -8 -54 -51
-210 -167 -47 -34 -91 -70 -99 -79 -14 -17 -41 -23 -41 -9 0 8 91 82 170 138
30 21 79 58 108 81 51 41 72 52 72 36z m-523 -245 c-15 -10 -33 -29 -39 -43
-14 -32 -32 -32 -46 0 -7 14 -25 34 -42 43 -35 20 -37 28 -10 37 11 3 32 22
46 40 l26 34 46 -47 47 -47 -28 -17z m533 -68 c11 -11 20 -31 20 -45 0 -30
-41 -75 -68 -75 -30 0 -61 31 -68 66 -12 62 70 100 116 54z m-640 -125 c0 -11
-11 -15 -40 -15 -38 0 -49 8 -33 23 3 4 21 7 40 7 23 0 33 -5 33 -15z m417
-11 c15 -11 35 -34 43 -50 38 -72 32 -69 126 -74 57 -3 89 -9 92 -17 6 -19
-150 -17 -187 2 -17 8 -35 30 -44 53 -30 76 -47 82 -233 82 -142 0 -164 2
-164 16 0 13 21 15 169 12 153 -3 172 -5 198 -24z m3438 6 c3 -11 15 -25 26
-30 22 -12 25 -30 5 -30 -7 0 -22 -12 -31 -27 l-18 -27 -21 26 c-12 14 -30 28
-41 32 l-20 7 20 12 c11 6 28 21 38 34 23 28 34 29 42 3z m-878 -57 c-3 -10
-5 -2 -5 17 0 19 2 27 5 18 2 -10 2 -26 0 -35z m-3008 3 c38 -46 -25 -111 -69
-71 -24 22 -25 42 -3 67 19 22 56 24 72 4z m3234 -49 c8 -21 -8 -39 -29 -35
-11 2 -20 13 -22 26 -3 18 1 22 21 22 14 0 27 -6 30 -13z m187 3 c0 -5 -4 -10
-10 -10 -5 0 -10 5 -10 10 0 6 5 10 10 10 6 0 10 -4 10 -10z m-40 -13 c0 -2
-20 -25 -45 -50 -25 -26 -45 -41 -45 -33 0 18 63 86 79 86 6 0 11 -1 11 -3z
m300 -32 c42 -22 118 -92 135 -124 8 -18 12 -63 11 -141 -1 -99 -6 -130 -35
-225 -18 -60 -35 -134 -38 -165 -6 -76 -12 -100 -23 -100 -6 0 -10 22 -10 50
0 61 -17 100 -43 100 -16 0 -18 4 -12 28 4 15 9 52 11 82 1 30 10 72 18 92 44
104 -15 208 -119 208 -105 0 -170 -117 -115 -208 15 -25 18 -37 10 -52 -7 -13
-7 -33 0 -62 15 -65 12 -82 -12 -93 -20 -9 -23 -19 -26 -77 -2 -38 -7 -68 -13
-68 -14 0 -29 46 -29 90 0 21 -12 82 -26 136 -47 177 -56 227 -50 289 4 48 3
55 -6 35 -12 -30 -15 -139 -4 -195 6 -32 5 -38 -5 -27 -22 21 -25 194 -5 247
36 92 100 153 204 192 46 17 137 11 182 -12z m-1212 -102 c3 -110 2 -113 -20
-118 -13 -3 -32 -3 -43 -1 -11 3 -23 5 -26 5 -3 1 -11 12 -17 27 -14 29 -66
54 -114 54 -40 0 -94 -31 -103 -59 -8 -26 -45 -36 -82 -24 -28 10 -28 10 -31
107 -2 65 1 103 9 112 10 12 50 14 218 12 l206 -3 3 -112z m702 11 c0 -40 -4
-55 -12 -52 -14 5 -23 70 -14 94 12 32 26 11 26 -42z m-2844 -3 c104 -47 166
-144 167 -261 1 -54 -4 -74 -29 -120 -17 -30 -35 -54 -42 -53 -7 2 -9 -4 -5
-14 4 -11 3 -14 -5 -9 -17 11 -14 45 9 96 37 81 35 173 -6 225 -14 19 -14 18
-4 -10 21 -57 15 -135 -14 -199 -19 -41 -27 -75 -27 -112 l0 -54 -140 0 -140
0 0 55 c0 40 -7 70 -27 108 -31 63 -35 143 -9 197 l17 35 -20 -25 c-46 -57
-50 -136 -11 -222 11 -24 20 -54 19 -68 0 -23 -1 -24 -13 -7 -19 24 -24 21
-19 -10 2 -16 -8 8 -22 51 -56 176 -15 296 126 367 33 16 59 34 59 39 0 17 93
11 136 -9z m-226 -6 c0 -3 -27 -31 -59 -63 -92 -90 -109 -168 -70 -321 11 -45
19 -85 16 -87 -2 -2 -14 30 -27 72 -30 103 -26 228 10 292 29 51 130 135 130
107z m2206 -83 c12 -9 76 -125 143 -257 67 -132 128 -246 136 -254 33 -34 27
6 -11 79 -23 43 -39 81 -36 84 3 3 24 6 46 6 44 0 94 -27 152 -82 40 -38 58
-19 20 21 -14 15 -23 30 -19 34 21 22 132 -10 162 -46 7 -10 20 -17 27 -17 22
0 16 27 -8 44 -21 15 -21 16 -3 17 82 4 145 -21 216 -88 57 -53 75 -84 126
-217 19 -50 77 -190 129 -312 52 -121 94 -224 94 -227 0 -4 -9 -7 -19 -7 -63
0 -368 -130 -479 -204 l-53 -35 -39 62 c-56 91 -69 107 -85 107 -21 0 -18 -20
7 -47 l21 -23 -34 0 c-110 1 -226 62 -459 245 -63 50 -142 110 -175 134 -90
67 -115 97 -115 138 0 54 45 93 108 93 43 0 59 -7 136 -58 47 -32 113 -81 146
-110 61 -54 70 -59 70 -41 0 18 -99 285 -158 424 -30 72 -73 177 -97 235 -23
58 -52 127 -64 153 -28 66 -27 112 4 142 29 30 80 33 111 7z m-1654 -17 c0 -8
1 -26 1 -40 0 -43 -3 -55 -13 -55 -5 0 -10 25 -10 55 0 30 5 55 10 55 6 0 11
-7 12 -15z m2518 -46 c0 -66 -24 -62 -28 4 -2 37 0 47 12 47 12 0 16 -12 16
-51z m458 7 c39 -20 57 -60 53 -119 0 -11 -16 -34 -35 -53 -55 -55 -125 -43
-161 26 -51 99 45 197 143 146z m-2978 -156 c0 -27 -4 -50 -10 -50 -5 0 -10
23 -10 50 0 28 5 50 10 50 6 0 10 -22 10 -50z m2520 0 c0 -38 -4 -50 -15 -50
-11 0 -15 11 -15 43 0 24 3 47 7 50 16 17 23 3 23 -43z m-1364 9 c7 -6 18 -26
24 -44 18 -56 -5 -92 -111 -174 -52 -39 -120 -93 -151 -119 -31 -26 -67 -55
-81 -64 -24 -17 -201 -351 -195 -368 2 -6 28 6 58 25 214 134 271 150 332 96
27 -24 33 -36 33 -71 0 -45 -20 -68 -97 -116 -18 -11 -108 -70 -199 -131 -231
-155 -312 -193 -417 -193 l-26 0 27 28 c31 32 34 42 10 42 -16 0 -63 -49 -116
-122 l-27 -38 -48 35 c-124 93 -250 161 -394 210 -60 21 -108 41 -108 45 0 4
74 156 165 339 163 327 166 331 223 376 66 53 145 85 206 85 53 0 63 -9 35
-31 -12 -9 -19 -21 -15 -28 5 -8 16 -4 36 13 35 29 118 50 160 41 37 -8 38
-18 5 -33 -14 -6 -25 -16 -25 -21 0 -21 18 -19 54 6 54 36 98 46 145 33 22 -6
42 -14 45 -19 3 -4 -22 -27 -54 -51 -54 -39 -76 -70 -50 -70 5 0 47 28 92 63
95 71 343 248 373 266 22 12 71 7 91 -10z m97 -81 c-6 -7 -13 -20 -16 -28 -3
-9 -6 -3 -6 13 -1 19 4 27 15 27 12 0 14 -4 7 -12z m1747 -18 c-1 -33 -22
-105 -33 -112 -7 -4 -33 -8 -58 -8 -53 0 -56 4 -65 83 l-6 52 81 0 c65 0 81
-3 81 -15z m-2880 -65 c0 -2 -17 -13 -37 -24 -56 -28 -109 -88 -153 -172 -22
-41 -40 -67 -40 -59 0 9 4 20 8 25 5 6 16 31 26 57 21 56 85 132 135 158 35
19 61 25 61 15z m2399 -48 c28 -26 71 -92 71 -109 0 -7 -8 1 -19 17 -18 31
-86 96 -131 127 -24 17 -23 17 15 2 22 -9 51 -26 64 -37z m-909 4 c5 -11 10
-24 10 -30 0 -8 -85 -11 -267 -11 l-268 1 35 29 35 29 222 1 c210 0 223 -1
233 -19z m-2050 -51 c-13 -9 -13 -10 0 -10 11 -1 8 -6 -9 -20 -13 -11 -19 -20
-15 -21 21 -3 -67 -22 -118 -26 l-58 -5 0 46 0 46 108 0 c73 0 102 -3 92 -10z
m3478 -57 c-2 -54 -6 -68 -20 -71 -12 -2 -17 5 -20 25 -2 15 -6 27 -10 26 -5
-2 -37 -3 -73 -3 -61 0 -65 -2 -71 -25 -8 -31 -30 -33 -38 -2 -8 30 -8 102 1
110 3 4 58 7 120 7 l114 0 -3 -67z m-1968 17 c0 -16 -7 -20 -32 -20 -30 0 -31
0 -13 20 10 11 24 20 32 20 7 0 13 -9 13 -20z m240 0 c0 -16 -7 -20 -35 -20
-33 0 -34 1 -23 20 7 11 23 20 35 20 16 0 23 -6 23 -20z m218 3 c-3 -15 -17
-18 -101 -21 -92 -3 -97 -2 -97 18 0 19 6 20 101 20 90 0 100 -2 97 -17z m80
-2 c3 -8 0 -11 -6 -7 -6 3 -13 2 -17 -4 -11 -17 -25 -11 -25 11 0 15 5 20 22
17 12 -2 23 -9 26 -17z m-649 -137 c-24 -25 -78 -40 -106 -29 -15 5 -12 12 24
43 23 20 54 47 70 59 l28 21 3 -35 c2 -26 -3 -42 -19 -59z m81 81 c0 -8 -4
-15 -10 -15 -5 0 -10 7 -10 15 0 8 5 15 10 15 6 0 10 -7 10 -15z m328 5 l42 0
0 -40 0 -40 -95 0 -95 0 0 46 0 47 53 -7 c28 -3 71 -6 95 -6z m157 1 c34 -1
43 -6 58 -32 9 -17 17 -35 17 -40 0 -5 -36 -9 -80 -9 l-80 0 0 45 c0 41 2 45
23 41 12 -3 40 -5 62 -5z m-1780 -41 c17 -19 15 -19 -166 -22 -101 -2 -188 0
-192 3 -5 4 -1 14 8 23 14 13 41 16 174 16 144 0 159 -2 176 -20z m3233 5 c-9
-9 -118 -13 -118 -4 0 5 28 9 62 9 34 0 59 -2 56 -5z m-1788 -25 c0 -15 -7
-20 -27 -20 -25 0 -26 0 -8 20 10 11 22 20 27 20 4 0 8 -9 8 -20z m-1430 -35
c0 -13 -28 -15 -190 -15 -162 0 -190 2 -190 15 0 13 28 15 190 15 162 0 190
-2 190 -15z m3202 -2 c-40 -2 -103 -2 -140 0 -37 2 -4 3 73 3 77 0 107 -2 67
-3z m176 0 c-10 -2 -26 -2 -35 0 -10 3 -2 5 17 5 19 0 27 -2 18 -5z m-1828
-58 l0 -45 -79 0 c-46 0 -83 5 -86 11 -4 6 -4 26 -1 45 l7 34 79 0 80 0 0 -45z
m210 20 c0 -19 -5 -25 -23 -25 -12 0 -40 -9 -62 -20 -22 -11 -52 -20 -67 -20
-26 0 -28 2 -28 45 l0 45 90 0 c89 0 90 0 90 -25z m123 -20 l26 -45 -26 0
c-40 0 -93 37 -93 66 0 21 5 24 34 24 30 0 37 -5 59 -45z m1440 28 c-62 -2
-164 -2 -225 0 -62 1 -12 3 112 3 124 0 174 -2 113 -3z m-3323 -33 c0 -10 -8
-24 -17 -29 -17 -10 -17 -10 0 -11 24 0 21 -12 -9 -41 -24 -22 -32 -24 -147
-24 -145 0 -186 16 -198 75 -4 19 -5 38 -3 42 3 5 88 8 190 8 176 0 184 -1
184 -20z m1304 -28 c14 3 26 1 26 -3 0 -5 -34 -9 -76 -9 -79 0 -81 2 -46 43
15 16 17 16 43 -9 20 -19 35 -25 53 -22z m2039 31 c-57 -2 -149 -2 -205 0 -57
1 -11 3 102 3 113 0 159 -2 103 -3z m97 -30 c0 -5 -78 -7 -172 -5 -266 4 -286
8 -45 10 119 1 217 -1 217 -5z m-257 -30 c-40 -2 -106 -2 -145 0 -40 1 -8 3
72 3 80 0 112 -2 73 -3z m244 -9 c-3 -3 -12 -4 -19 -1 -8 3 -5 6 6 6 11 1 17
-2 13 -5z m-2242 -14 c-33 -4 -84 -19 -113 -34 -85 -43 -76 -22 13 31 11 6 52
11 90 11 l70 -1 -60 -7z m255 -40 l0 -50 -48 0 c-42 0 -50 3 -65 30 -10 16
-27 35 -38 40 -38 21 -18 30 66 30 l85 0 0 -50z m172 0 l-4 -50 -69 0 -69 0 0
50 0 50 73 0 72 0 -3 -50z m1686 33 c-53 -2 -143 -2 -200 0 -57 1 -13 3 97 3
110 0 156 -2 103 -3z m-25 -30 c-45 -2 -122 -2 -170 0 -48 1 -11 3 82 3 94 0
133 -2 88 -3z m67 -53 c0 -10 -179 -4 -189 6 -2 2 39 4 92 4 59 0 97 -4 97
-10z m-230 -30 c12 -8 9 -10 -13 -10 -16 0 -26 4 -22 10 8 12 16 12 35 0z
m199 6 c-11 -9 -179 -15 -179 -6 0 6 37 10 92 10 50 0 89 -2 87 -4z m-1682
-18 c6 -7 15 -28 21 -45 l11 -33 -147 0 -148 0 4 41 c3 32 1 40 -8 34 -9 -5
-11 -4 -6 3 10 17 260 16 273 0z m1606 -15 c-29 -2 -77 -2 -105 0 -29 2 -6 3
52 3 58 0 81 -1 53 -3z m-35 -30 c-15 -2 -42 -2 -60 0 -18 2 -6 4 27 4 33 0
48 -2 33 -4z m60 -60 c-10 -2 -28 -2 -40 0 -13 2 -5 4 17 4 22 1 32 -1 23 -4z
m-1588 -23 c21 0 84 -49 75 -59 -12 -11 -470 -2 -467 10 10 38 34 44 191 49
86 3 162 5 169 3 8 -2 22 -3 32 -3z m1588 -7 c-10 -2 -28 -2 -40 0 -13 2 -5 4
17 4 22 1 32 -1 23 -4z m-15 -30 c-7 -2 -21 -2 -30 0 -10 3 -4 5 12 5 17 0 24
-2 18 -5z m-3353 -53 c-6 -11 -16 -17 -25 -13 -13 5 -13 7 2 19 26 19 35 17
23 -6z m1976 -48 c23 -26 43 -41 52 -37 9 3 12 0 9 -9 -3 -8 -1 -16 5 -18 6
-2 13 -26 15 -54 8 -83 5 -84 -218 -84 -170 0 -189 2 -189 17 0 21 -29 53 -48
53 -22 0 -52 -30 -52 -52 0 -17 -12 -18 -176 -18 -102 0 -183 4 -195 10 -15 8
-19 21 -19 60 0 27 5 52 10 55 6 4 7 11 4 17 -4 6 -3 8 3 5 5 -3 15 3 23 13 8
10 17 17 22 14 4 -3 8 0 8 5 0 6 3 10 8 9 11 -4 53 28 47 35 -3 4 -2 5 1 2 4
-2 16 2 28 11 18 12 68 14 322 12 l302 -3 38 -43z m1250 -14 c-6 -4 -17 0 -23
9 -21 27 -15 35 11 16 16 -12 20 -20 12 -25z m-1120 -54 c7 3 17 0 21 -7 5 -7
28 -28 53 -47 25 -19 53 -42 63 -50 9 -8 44 -29 77 -46 41 -22 55 -34 44 -38
-28 -11 -1556 -7 -1549 4 3 6 13 10 21 10 9 0 30 11 48 25 18 14 40 25 49 25
10 0 17 8 17 17 0 9 3 13 6 10 7 -7 59 19 82 41 7 6 17 12 22 12 4 0 22 14 39
32 l31 32 0 -62 c0 -49 4 -66 23 -87 l22 -26 434 0 c509 0 470 -9 472 110 1
42 3 68 6 58 3 -11 11 -16 19 -13z m-488 -117 c2 -10 -3 -17 -12 -17 -18 0
-29 16 -21 31 9 14 29 6 33 -14z m-630 -266 c119 -1 142 -3 142 -16 0 -13 -27
-15 -184 -15 -113 0 -187 4 -191 10 -13 21 8 32 49 26 22 -3 105 -5 184 -5z
m1350 3 c-9 -8 -1178 -10 -1178 -1 0 4 266 7 592 7 325 0 589 -3 586 -6z m57
-4 c18 -8 17 -9 -7 -9 -16 -1 -28 4 -28 9 0 12 8 12 35 0z m-1248 -112 c-3 -8
-6 -5 -6 6 -1 11 2 17 5 13 3 -3 4 -12 1 -19z m-50 6 c-3 -3 -12 -4 -19 -1 -8
3 -5 6 6 6 11 1 17 -2 13 -5z m305 -1 c-40 -2 -103 -2 -140 0 -37 2 -4 3 73 3
77 0 107 -2 67 -3z"/>
<path d="M2864 4375 c-8 -21 2 -45 19 -45 21 0 38 25 31 44 -8 20 -43 21 -50
1z"/>
<path d="M1820 4250 c0 -6 27 -10 60 -10 33 0 60 4 60 10 0 6 -27 10 -60 10
-33 0 -60 -4 -60 -10z"/>
<path d="M1803 4194 c-34 -15 -5 -24 72 -24 50 0 85 4 85 10 0 6 -6 10 -12 10
-7 1 -40 3 -73 5 -33 2 -66 2 -72 -1z"/>
<path d="M1790 4117 c0 -10 23 -14 85 -16 71 -2 85 1 85 14 0 12 -15 15 -85
15 -64 0 -85 -3 -85 -13z"/>
<path d="M1812 4058 c3 -9 27 -13 76 -13 99 0 97 19 -1 23 -61 2 -78 0 -75
-10z"/>
<path d="M1913 3993 c-53 -3 -73 -8 -73 -17 0 -28 138 -38 160 -11 11 14 6 37
-8 33 -4 -1 -40 -4 -79 -5z"/>
<path d="M2646 4072 c1 -15 7 -28 12 -30 5 -1 7 -14 4 -29 -3 -15 -1 -24 5
-20 5 3 8 -6 5 -24 -5 -36 12 -59 44 -59 23 0 24 3 18 43 -9 64 -21 90 -58
119 l-33 27 3 -27z"/>
<path d="M1500 4155 c-16 -19 -6 -45 19 -45 23 0 35 28 20 46 -15 18 -24 18
-39 -1z"/>
<path d="M3522 4143 c-12 -24 -4 -43 18 -43 20 0 36 33 25 50 -10 16 -33 12
-43 -7z"/>
<path d="M1220 4011 c-22 -43 1 -78 45 -67 29 7 44 49 25 71 -18 21 -57 19
-70 -4z m50 -26 c0 -8 -7 -15 -15 -15 -16 0 -20 12 -8 23 11 12 23 8 23 -8z"/>
<path d="M1087 3873 c-4 -3 -7 -11 -7 -17 0 -6 5 -5 12 2 6 6 9 14 7 17 -3 3
-9 2 -12 -2z"/>
<path d="M3306 3703 c-11 -11 -6 -23 9 -23 8 0 15 4 15 9 0 13 -16 22 -24 14z"/>
<path d="M880 3579 c0 -20 4 -21 47 -15 52 7 58 10 48 25 -3 6 -26 11 -51 11
-38 0 -44 -3 -44 -21z"/>
<path d="M1164 3419 c-3 -6 0 -17 8 -25 13 -13 16 -13 27 0 7 8 10 20 6 26 -8
13 -32 13 -41 -1z"/>
<path d="M2474 3365 c-8 -21 2 -45 19 -45 21 0 38 25 31 44 -8 20 -43 21 -50
1z m36 -15 c0 -5 -5 -10 -11 -10 -5 0 -7 5 -4 10 3 6 8 10 11 10 2 0 4 -4 4
-10z"/>
<path d="M3902 3343 c2 -10 10 -18 18 -18 8 0 16 8 18 18 2 12 -3 17 -18 17
-15 0 -20 -5 -18 -17z"/>
<path d="M864 3299 c-19 -22 -19 -22 4 -8 12 8 22 17 22 21 0 12 -6 9 -26 -13z"/>
<path d="M4340 3181 c0 -6 4 -13 10 -16 6 -3 7 1 4 9 -7 18 -14 21 -14 7z"/>
<path d="M3842 3137 c-7 -8 -12 -74 -13 -167 -1 -137 1 -155 17 -167 24 -18
404 -19 422 -1 17 17 17 319 0 336 -18 18 -411 17 -426 -1z m413 -167 l0 -155
-200 0 -200 0 -3 145 c-1 79 0 150 2 157 4 11 47 13 203 11 l198 -3 0 -155z"/>
<path d="M1820 3196 c-6 -8 -10 -25 -8 -38 4 -30 46 -38 65 -12 17 23 16 29
-3 48 -19 20 -38 20 -54 2z m40 -26 c0 -11 -7 -20 -15 -20 -15 0 -21 21 -8 33
12 13 23 7 23 -13z"/>
<path d="M3082 3189 c2 -6 8 -10 13 -10 5 0 11 4 13 10 2 6 -4 11 -13 11 -9 0
-15 -5 -13 -11z"/>
<path d="M3140 3191 c0 -11 26 -22 34 -14 12 12 5 23 -14 23 -11 0 -20 -4 -20
-9z"/>
<path d="M1947 3132 c-14 -15 -17 -42 -17 -155 0 -129 1 -137 22 -151 20 -14
89 -16 555 -16 520 0 534 1 553 20 18 18 20 33 20 148 0 99 -3 132 -16 150
l-15 22 -543 0 c-513 0 -544 -1 -559 -18z m1087 -8 c14 -5 16 -27 16 -140 0
-122 -2 -134 -19 -144 -13 -6 -199 -10 -535 -10 -454 0 -516 2 -530 16 -13 12
-16 40 -16 138 0 81 4 126 12 134 9 9 141 12 534 12 287 0 529 -3 538 -6z"/>
<path d="M2000 2980 l0 -100 60 0 c47 0 60 3 60 15 0 11 -12 15 -45 15 -41 0
-45 2 -45 25 0 22 4 25 35 25 24 0 35 5 35 15 0 10 -11 15 -35 15 -32 0 -35 2
-35 29 0 28 3 30 43 33 60 4 48 22 -18 26 l-55 3 0 -101z"/>
<path d="M2160 2980 l0 -100 39 0 c23 0 48 8 62 19 21 16 24 28 24 81 0 53 -3
65 -24 81 -14 11 -39 19 -62 19 l-39 0 0 -100z m86 45 c12 -18 14 -35 9 -62
-7 -40 -19 -53 -47 -53 -16 0 -18 10 -18 70 0 63 2 70 20 70 11 0 27 -11 36
-25z"/>
<path d="M2334 3065 c-4 -8 -3 -23 1 -32 6 -17 7 -17 20 0 19 26 49 18 53 -14
3 -22 -3 -29 -33 -43 -38 -19 -62 -55 -52 -80 9 -23 127 -23 127 -1 0 11 -12
15 -45 15 -25 0 -45 4 -45 10 0 5 17 21 39 34 72 46 60 126 -20 126 -26 0 -42
-5 -45 -15z"/>
<path d="M2500 3060 c0 -11 4 -20 9 -20 13 0 32 26 24 33 -13 14 -33 6 -33
-13z"/>
<path d="M2790 3033 c-8 -3 -25 -15 -37 -25 -17 -16 -29 -19 -55 -14 -70 15
-93 12 -96 -10 -2 -11 4 -27 12 -34 13 -10 22 -9 50 4 48 23 64 20 96 -14 33
-35 58 -38 88 -10 48 45 3 125 -58 103z m38 -56 c3 -22 -1 -27 -18 -27 -26 0
-37 25 -20 45 18 22 34 13 38 -18z m-171 7 c1 -5 -2 -16 -7 -24 -12 -20 -35 2
-26 25 6 17 27 16 33 -1z"/>
<path d="M2504 2995 c-9 -23 10 -40 25 -22 9 11 8 17 -4 27 -12 10 -16 9 -21
-5z"/>
<path d="M2890 2981 c0 -15 22 -18 83 -13 80 6 71 22 -13 22 -38 0 -70 -4 -70
-9z"/>
<path d="M2500 2900 c0 -15 5 -20 18 -18 9 2 17 10 17 18 0 8 -8 16 -17 18
-13 2 -18 -3 -18 -18z"/>
<path d="M3145 3131 c-7 -12 12 -24 25 -16 11 7 4 25 -10 25 -5 0 -11 -4 -15
-9z"/>
<path d="M1947 2743 c-4 -3 -7 -10 -7 -15 0 -11 1107 -10 1114 1 3 4 -25 11
-62 15 -90 8 -1037 8 -1045 -1z"/>
<path d="M1940 2640 c0 -6 102 -10 285 -10 183 0 285 4 285 10 0 6 -102 10
-285 10 -183 0 -285 -4 -285 -10z"/>
<path d="M2620 2641 c0 -5 6 -10 13 -12 28 -9 427 2 427 11 0 6 -86 10 -220
10 -122 0 -220 -4 -220 -9z"/>
<path d="M1968 2581 c-32 -9 -38 -36 -38 -157 0 -173 -15 -164 284 -163 127 0
227 2 221 4 -20 7 -143 16 -300 21 -131 5 -162 8 -172 22 -19 23 -18 226 1
241 10 8 92 11 290 9 216 -2 276 0 276 10 0 9 -28 13 -102 14 -194 3 -448 3
-460 -1z"/>
<path d="M2067 2484 c-4 -4 -7 -31 -7 -61 0 -45 3 -53 19 -53 16 0 17 6 13 53
-4 53 -13 73 -25 61z"/>
<path d="M2269 2445 c-1 -25 -2 -51 -3 -57 -1 -7 7 -14 17 -16 14 -3 17 5 17
51 0 40 -4 56 -15 61 -12 4 -15 -4 -16 -39z"/>
<path d="M2170 2430 c0 -27 4 -50 10 -50 11 0 24 65 16 85 -12 32 -26 13 -26
-35z"/>
<path d="M2374 2425 c0 -35 4 -56 12 -59 18 -7 23 13 17 67 -8 66 -28 60 -29
-8z"/>
<path d="M640 2904 c0 -9 5 -14 12 -12 18 6 21 28 4 28 -9 0 -16 -7 -16 -16z"/>
<path d="M1170 2790 c-14 -27 4 -52 34 -48 31 4 30 62 -1 66 -14 2 -26 -4 -33
-18z"/>
<path d="M4432 2649 c1 -13 8 -23 13 -21 15 3 12 35 -3 40 -9 3 -13 -3 -10
-19z"/>
<path d="M527 2623 c-11 -10 -8 -41 4 -49 16 -9 41 20 33 39 -6 17 -25 22 -37
10z"/>
<path d="M4144 2519 c-10 -17 13 -36 27 -22 12 12 4 33 -11 33 -5 0 -12 -5
-16 -11z"/>
<path d="M4084 2449 c-11 -19 9 -25 74 -21 45 3 62 8 62 18 0 11 -16 14 -64
14 -36 0 -68 -5 -72 -11z"/>
<path d="M3930 2233 c0 -15 4 -44 9 -63 5 -19 12 -47 15 -62 4 -16 13 -28 21
-28 18 0 19 32 1 115 -9 41 -18 61 -29 63 -13 3 -17 -4 -17 -25z"/>
<path d="M4336 2248 c-12 -40 -26 -150 -20 -159 14 -23 29 2 45 76 10 44 15
83 13 87 -8 13 -34 9 -38 -4z"/>
<path d="M3983 2063 c-21 -7 -15 -33 7 -33 11 0 20 6 20 14 0 18 -11 25 -27
19z"/>
<path d="M4292 2038 c5 -34 38 -37 38 -4 0 20 -5 26 -21 26 -15 0 -20 -5 -17
-22z"/>
<path d="M3994 1989 c-10 -17 13 -36 27 -22 12 12 4 33 -11 33 -5 0 -12 -5
-16 -11z"/>
<path d="M4272 1974 c2 -11 11 -20 22 -22 13 -3 17 1 14 14 -2 11 -11 20 -22
22 -13 3 -17 -1 -14 -14z"/>
<path d="M2737 2464 c-19 -19 1 -24 99 -24 80 0 105 3 102 13 -5 13 -188 23
-201 11z"/>
<path d="M760 2277 c0 -19 16 -31 24 -18 3 5 -1 14 -9 21 -12 10 -15 10 -15
-3z"/>
<path d="M835 2270 c-10 -11 -24 -20 -32 -20 -15 0 -16 -9 -4 -28 6 -10 16 -4
39 23 18 20 32 38 32 40 0 11 -18 3 -35 -15z"/>
<path d="M3626 1748 c18 -58 36 -90 45 -81 13 13 -21 103 -39 103 -9 0 -11 -7
-6 -22z"/>
<path d="M4120 2221 c-23 -16 2 -33 41 -29 22 2 34 8 34 18 0 18 -52 25 -75
11z"/>
<path d="M1343 1767 c-17 -21 -36 -77 -29 -84 9 -10 23 7 40 49 15 36 8 60
-11 35z"/>
<path d="M3690 779 c0 -5 5 -7 10 -4 6 3 10 8 10 11 0 2 -4 4 -10 4 -5 0 -10
-5 -10 -11z"/>
<path d="M3584 695 c-4 -8 -10 -12 -15 -9 -5 3 -9 0 -9 -5 0 -18 19 -12 30 9
6 11 8 20 5 20 -3 0 -8 -7 -11 -15z"/>
</g>
</svg>
